<svg width="53" height="51" viewBox="0 0 53 51" fill="none" xmlns="http://www.w3.org/2000/svg">
<path d="M23.2887 0.954915C25.0411 -0.318305 27.4141 -0.318305 29.1665 0.954915L50.3938 16.3774C52.1462 17.6506 52.8795 19.9075 52.2101 21.9676L44.102 46.9217C43.4327 48.9818 41.5129 50.3766 39.3468 50.3766H13.1084C10.9423 50.3766 9.02252 48.9818 8.35315 46.9217L0.245058 21.9676C-0.424313 19.9075 0.308978 17.6506 2.06141 16.3774L23.2887 0.954915Z" fill="#B0F3B4"/>
<path d="M49.834 15.9707L50.3938 16.3774C52.1462 17.6506 52.8795 19.9075 52.2101 21.9676L44.102 46.9217C43.4327 48.9818 41.5129 50.3766 39.3468 50.3766H13.1084C11.3647 50.3766 9.78059 49.4728 8.87992 48.0455C9.29354 48.1559 9.72602 48.2142 10.1688 48.2142H36.91C39.0761 48.2142 40.9959 46.8194 41.6653 44.7592L49.9288 19.3268C50.294 18.2028 50.2417 17.0202 49.834 15.9707Z" fill="#289F40"/>
</svg>
