<svg width="293" height="134" viewBox="0 0 293 134" fill="none" xmlns="http://www.w3.org/2000/svg">
<path d="M84.9553 6.65718H206.591V28.5169H84.9553V6.65718Z" fill="#999999"/>
<path d="M84.9553 6.65716H206.591V14.9011H84.9553V6.65716Z" fill="#666666"/>
<path d="M0 4.993L0.0661952 4.18311L0.257832 3.41482L0.56448 2.69843L0.975773 2.0442L1.48125 1.46241L2.07052 0.963358L2.73318 0.557309L3.45881 0.254546L4.23699 0.0653502L5.05731 -1.29072e-06H287.309L288.129 0.0653502L288.907 0.254546L289.633 0.557309L290.296 0.963358L290.885 1.46241L291.39 2.0442L291.802 2.69843L292.108 3.41482L292.3 4.18311L292.366 4.993L292.3 5.80289L292.108 6.57117L291.802 7.28756L291.39 7.94179L290.885 8.52358L290.296 9.02263L289.633 9.42868L288.907 9.73145L288.129 9.92064L287.309 9.98599H5.05731L4.23699 9.92064L3.45881 9.73145L2.73318 9.42868L2.07054 9.02263L1.48125 8.52358L0.975773 7.94179L0.564496 7.28756L0.257832 6.57117L0.0661952 5.80289L0 4.993Z" fill="#999999"/>
<path d="M0 4.993L0.0661952 4.18311L0.257832 3.41482L0.56448 2.69843L0.975773 2.0442L1.48125 1.46241L2.07052 0.963358L2.73318 0.557309L3.45881 0.254546L4.23699 0.0653502L5.05731 -1.29072e-06H149.945V9.98599H5.05731L4.23699 9.92064L3.45881 9.73145L2.73318 9.42868L2.07054 9.02263L1.48125 8.52358L0.975773 7.94179L0.564496 7.28756L0.257832 6.57117L0.0661952 5.80289L0 4.993Z" fill="#B3B3B3"/>
<path d="M49.4961 -1.29072e-06H100.448V9.98599H49.4961V-1.29072e-06Z" fill="#CCCCCC"/>
<path d="M18.7085 32.4127L19.1975 30.6962L19.9087 29.0951L20.8232 27.6249L21.9218 26.301L23.1853 25.1385L24.5946 24.153L26.1307 23.3597L27.7745 22.7741L29.5067 22.4114L31.3084 22.2871H261.058L262.859 22.4114L264.592 22.7741L266.235 23.3597L267.772 24.153L269.181 25.1385L270.444 26.301L271.543 27.6249L272.457 29.0951L273.169 30.6962L273.658 32.4127L292.141 120.448L292.366 122.402L292.232 124.296L291.767 126.097L290.999 127.77L289.958 129.28L288.671 130.593L287.168 131.675L285.476 132.49L283.624 133.005L281.641 133.184H10.7247L8.74166 133.005L6.89003 132.49L5.19829 131.675L3.69488 130.593L2.40832 129.28L1.36707 127.77L0.599624 126.097L0.134428 124.296L0 122.402L0.224807 120.448L18.7085 32.4127Z" fill="#333333"/>
<path d="M291.488 117.336L290.937 118.416L290.268 119.424L289.489 120.35L288.608 121.185L287.633 121.919L286.573 122.542L285.436 123.043L284.229 123.414L282.962 123.643L281.641 123.722H10.7246L9.40419 123.643L8.13663 123.414L6.93008 123.043L5.79273 122.542L4.73272 121.919L3.7582 121.185L2.87733 120.35L2.09827 119.424L1.42916 118.416L0.878174 117.336L18.7085 32.4127L19.1974 30.6962L19.9087 29.0951L20.8232 27.6249L21.9217 26.3009L23.1852 25.1385L24.5946 24.153L26.1307 23.3597L27.7744 22.7741L29.5067 22.4114L31.3084 22.2871H261.058L262.859 22.4114L264.592 22.7741L266.235 23.3597L267.771 24.153L269.181 25.1385L270.444 26.3009L271.543 27.6249L272.457 29.0951L273.169 30.6961L273.658 32.4126L291.488 117.336Z" fill="#666666"/>
<path d="M30.9059 41.644L31.2256 40.4909L31.6956 39.4147L32.303 38.426L33.0349 37.5352L33.8785 36.7528L34.8207 36.0892L35.8488 35.5549L36.9497 35.1602L38.1106 34.9158L39.3186 34.832H252.209L253.417 34.9158L254.578 35.1602L255.679 35.5549L256.707 36.0892L257.649 36.7528L258.493 37.5352L259.224 38.426L259.832 39.4147L260.302 40.4909L260.621 41.644L271.04 93.1901L250.712 111.188H40.8152L20.4873 93.1901L30.9059 41.644Z" fill="#B3B3B3"/>
<path d="M221.657 34.832H155.815L198.019 111.188H250.712L259.54 103.372L221.657 34.832Z" fill="#E5E5E5"/>
<path d="M138.995 34.832H48.9045L91.1082 111.188H181.199L138.995 34.832Z" fill="#E5E5E5"/>
<path d="M39.2221 41.4249H252.304L261.971 89.2664L245.608 103.536H45.9186L29.5547 89.2664L39.2221 41.4249Z" fill="black"/>
<path d="M253.405 46.8734H38.1211L39.2221 41.425H252.304L253.405 46.8734Z" fill="#4C4C4C"/>
</svg>
