<svg width="427" height="195" viewBox="0 0 427 195" fill="none" xmlns="http://www.w3.org/2000/svg">
<path d="M139.381 10.9904H285.686V37.303H139.381V10.9904Z" fill="#999999"/>
<path d="M139.381 10.9904H285.686V20.9136H139.381V10.9904Z" fill="#666666"/>
<path d="M37.1951 8.9872L37.2747 8.01233L37.5052 7.08754L37.874 6.22521L38.3687 5.43772L38.9767 4.73742L39.6855 4.13671L40.4826 3.64794L41.3554 3.28351L42.2914 3.05577L43.2781 2.97711H382.775L383.762 3.05577L384.698 3.28351L385.571 3.64794L386.368 4.13671L387.076 4.73742L387.684 5.43772L388.179 6.22521L388.548 7.08754L388.778 8.01233L388.858 8.9872L388.778 9.96206L388.548 10.8868L388.179 11.7492L387.684 12.5367L387.076 13.237L386.368 13.8377L385.571 14.3264L384.698 14.6909L383.762 14.9186L382.775 14.9973H43.2781L42.2914 14.9186L41.3554 14.6909L40.4826 14.3264L39.6855 13.8377L38.9767 13.237L38.3687 12.5367L37.8741 11.7492L37.5052 10.8868L37.2747 9.96206L37.1951 8.9872Z" fill="#999999"/>
<path d="M37.1951 8.9872L37.2747 8.01233L37.5052 7.08754L37.874 6.22521L38.3687 5.43772L38.9767 4.73742L39.6855 4.13671L40.4826 3.64794L41.3554 3.28351L42.2914 3.05577L43.2781 2.97711H217.551V14.9973H43.2781L42.2914 14.9186L41.3554 14.6909L40.4826 14.3264L39.6855 13.8377L38.9767 13.237L38.3687 12.5367L37.8741 11.7492L37.5052 10.8868L37.2747 9.96206L37.1951 8.9872Z" fill="#B3B3B3"/>
<path d="M96.7297 2.97711H158.016V14.9973H96.7297V2.97711Z" fill="#CCCCCC"/>
<path d="M59.698 41.9924L60.2861 39.9262L61.1416 37.999L62.2416 36.2294L63.5629 34.6357L65.0827 33.2364L66.7779 32.0501L68.6256 31.0953L70.6027 30.3904L72.6863 29.9538L74.8534 29.8042H351.2L353.367 29.9538L355.45 30.3904L357.428 31.0953L359.275 32.0501L360.97 33.2364L362.49 34.6357L363.812 36.2294L364.911 37.999L365.767 39.9262L366.355 41.9924L388.588 147.961L388.858 150.312L388.696 152.593L388.137 154.761L387.214 156.774L385.961 158.592L384.414 160.173L382.605 161.475L380.571 162.456L378.343 163.075L375.958 163.291H50.0949L47.7097 163.075L45.4825 162.456L43.4477 161.475L41.6393 160.173L40.0918 158.592L38.8394 156.774L37.9163 154.761L37.3568 152.593L37.1951 150.312L37.4655 147.961L59.698 41.9924Z" fill="#333333"/>
<path d="M387.802 144.215L387.139 145.514L386.334 146.728L385.397 147.843L384.338 148.848L383.165 149.732L381.89 150.481L380.522 151.085L379.071 151.531L377.546 151.807L375.958 151.902H50.0949L48.5067 151.807L46.9821 151.531L45.5308 151.085L44.1628 150.481L42.8878 149.732L41.7156 148.849L40.6561 147.843L39.719 146.728L38.9142 145.515L38.2515 144.215L59.6981 41.9923L60.2862 39.9262L61.1417 37.999L62.2416 36.2293L63.563 34.6356L65.0828 33.2364L66.778 32.0501L68.6256 31.0953L70.6027 30.3903L72.6863 29.9538L74.8534 29.8042H351.2L353.367 29.9538L355.45 30.3903L357.428 31.0953L359.275 32.0501L360.97 33.2364L362.49 34.6356L363.812 36.2293L364.911 37.999L365.767 39.9262L366.355 41.9923L387.802 144.215Z" fill="#666666"/>
<path d="M74.3694 53.1041L74.7538 51.7161L75.3191 50.4208L76.0497 49.2307L76.9301 48.1584L77.9448 47.2166L79.0781 46.4178L80.3147 45.7746L81.6389 45.2996L83.0353 45.0054L84.4882 44.9045H340.556L342.009 45.0054L343.406 45.2996L344.73 45.7746L345.966 46.4178L347.1 47.2166L348.114 48.1584L348.995 49.2307L349.725 50.4208L350.291 51.7161L350.675 53.1042L363.207 115.15L338.756 136.814H86.2884L61.8376 115.15L74.3694 53.1041Z" fill="#B3B3B3"/>
<path d="M303.807 44.9045H224.612L275.376 136.814H338.756L349.374 127.406L303.807 44.9045Z" fill="#E5E5E5"/>
<path d="M204.381 44.9045H96.0183L146.782 136.814H255.144L204.381 44.9045Z" fill="#E5E5E5"/>
<path d="M84.3721 52.8405H340.671L352.299 110.427L332.616 127.603H92.4266L72.7439 110.427L84.3721 52.8405Z" fill="black"/>
<path d="M341.995 59.3988H83.0479L84.3721 52.8405H340.671L341.995 59.3988Z" fill="#4C4C4C"/>
</svg>
