<svg width="57" height="57" viewBox="0 0 57 57" fill="none" xmlns="http://www.w3.org/2000/svg">
<path d="M25.5611 2.13525C27.3135 0.862034 29.6865 0.862035 31.4389 2.13526L52.6662 17.5578C54.4186 18.831 55.1519 21.0878 54.4825 23.1479L46.3744 48.1021C45.7051 50.1622 43.7853 51.557 41.6192 51.557H15.3808C13.2147 51.557 11.2949 50.1622 10.6256 48.1021L2.51746 23.1479C1.84809 21.0878 2.58138 18.831 4.33382 17.5578L25.5611 2.13525Z" fill="#B0F3B4"/>
<path fill-rule="evenodd" clip-rule="evenodd" d="M52.1064 17.1511L52.6662 17.5578C54.4187 18.831 55.1519 21.0878 54.4826 23.1479L46.3745 48.1021C45.7051 50.1622 43.7853 51.557 41.6192 51.557H15.3809C13.6371 51.557 12.053 50.6531 11.1523 49.2259C11.566 49.3362 11.9984 49.3945 12.4412 49.3945H39.1824C41.3486 49.3945 43.2684 47.9997 43.9377 45.9396L52.2012 20.5072C52.5664 19.3831 52.5141 18.2005 52.1064 17.1511Z" fill="#289F40"/>
</svg>
