<svg width="51" height="51" viewBox="0 0 51 51" fill="none" xmlns="http://www.w3.org/2000/svg">
<path d="M51 25.5L50.6662 29.6362L49.7 33.56L48.1537 37.2187L46.08 40.56L43.5312 43.5312L40.56 46.08L37.2187 48.1537L33.56 49.7L29.6362 50.6662L25.5 51L21.3638 50.6662L17.44 49.7L13.7813 48.1537L10.44 46.08L7.46878 43.5312L4.92002 40.56L2.84626 37.2187L1.30001 33.56L0.333751 29.6362L0 25.5L0.333751 21.3638L1.30001 17.44L2.84626 13.7813L4.92002 10.44L7.46878 7.46878L10.44 4.92002L13.7813 2.84626L17.44 1.30001L21.3638 0.33375L25.5 0L29.6362 0.33375L33.56 1.30001L37.2187 2.84626L40.56 4.92002L43.5312 7.46878L46.08 10.44L48.1537 13.7813L49.7 17.44L50.6662 21.3638L51 25.5Z" fill="#294BC6"/>
<path d="M24.6349 0.0143579L28.378 0.439938L31.9222 1.42202L35.2214 2.91467L38.2298 4.87194L40.9014 7.24789L43.1902 9.99658L45.0504 13.0721L46.436 16.4284L47.3011 20.0197L47.5996 23.8L47.2881 27.6605L46.3863 31.3226L44.9431 34.7374L43.0076 37.8559L40.6288 40.6291L37.8556 43.008L34.7371 44.9435L31.3223 46.3866L27.6601 47.2885L23.7996 47.6L20.0194 47.3014L16.4281 46.4364L13.0717 45.0508L9.99624 43.1906L7.24754 40.9017L4.87159 38.2301L2.91432 35.2217L1.42167 31.9225L0.439591 28.3784L0.0140104 24.6353L0.450171 20.7028L1.45998 16.9735L2.99715 13.4939L5.01539 10.3103L7.46878 7.46878L10.3099 5.01573L13.4936 2.9975L16.9732 1.46033L20.7024 0.450519L24.6349 0.0143579Z" fill="#ABBDFF"/>
<path d="M18.0627 4.67166L18.1037 4.80377L18.1224 4.93715L18.12 5.06953L18.0973 5.19863L18.0553 5.32218L17.995 5.4379L17.9174 5.54351L17.8234 5.63675L17.714 5.71533L17.5901 5.77697L16.8201 6.1035L16.0648 6.45951L15.3248 6.84446L14.6011 7.25782L13.8943 7.69908L13.2055 8.16769L12.5353 8.66315L11.8845 9.18491L11.254 9.73246L10.6446 10.3053L10.0581 10.9016L9.4965 11.5196L8.96018 12.1584L8.44972 12.8173L7.96566 13.4954L7.50856 14.1919L7.07896 14.9062L6.6774 15.6372L6.30443 16.3844L5.9606 17.1468L5.89617 17.2692L5.81514 17.3768L5.71981 17.4687L5.61246 17.5439L5.49541 17.6016L5.37095 17.6408L5.24137 17.6606L5.10897 17.66L4.97604 17.6382L4.84489 17.5943L4.72249 17.5298L4.61489 17.4488L4.52301 17.3535L4.44777 17.2461L4.3901 17.1291L4.35091 17.0046L4.33113 16.875L4.33168 16.7426L4.35348 16.6097L4.39745 16.4786L4.76879 15.6551L5.17159 14.8482L5.60528 14.0587L6.06925 13.2873L6.56292 12.535L7.0857 11.8026L7.637 11.0911L8.21623 10.4011L8.8228 9.73372L9.45613 9.08968L10.1143 8.47106L10.7953 7.87971L11.4981 7.3162L12.2219 6.78111L12.9659 6.275L13.7291 5.79845L14.5108 5.35201L15.31 4.93627L16.1258 4.55178L16.9573 4.19913L17.0895 4.15814L17.2228 4.13935L17.3552 4.14179L17.4843 4.16449L17.6079 4.20648L17.7236 4.26678L17.8292 4.34442L17.9224 4.43843L18.001 4.54783L18.0627 4.67166Z" fill="white" fill-opacity="0.7"/>
</svg>
