<svg width="355" height="162" viewBox="0 0 355 162" fill="none" xmlns="http://www.w3.org/2000/svg">
<path d="M116.247 6.65715H237.883V28.5169H116.247V6.65715Z" fill="#999999"/>
<path d="M116.247 6.65713H237.883V14.9011H116.247V6.65713Z" fill="#666666"/>
<path d="M31.2917 4.99303L31.3579 4.18314L31.5496 3.41485L31.8562 2.69846L32.2675 2.04423L32.773 1.46245L33.3623 0.963389L34.0249 0.55734L34.7506 0.254577L35.5287 0.0653807L36.3491 2.92269e-05H318.601L319.421 0.0653807L320.199 0.254577L320.925 0.55734L321.587 0.963389L322.177 1.46245L322.682 2.04423L323.093 2.69846L323.4 3.41485L323.592 4.18314L323.658 4.99303L323.592 5.80292L323.4 6.5712L323.093 7.2876L322.682 7.94182L322.177 8.52361L321.587 9.02266L320.925 9.42871L320.199 9.73148L319.421 9.92067L318.601 9.98602H36.3491L35.5287 9.92067L34.7506 9.73148L34.0249 9.42871L33.3623 9.02266L32.773 8.52361L32.2675 7.94182L31.8562 7.2876L31.5496 6.5712L31.3579 5.80292L31.2917 4.99303Z" fill="#999999"/>
<path d="M31.2917 4.99303L31.3579 4.18314L31.5496 3.41485L31.8562 2.69846L32.2675 2.04423L32.773 1.46245L33.3623 0.963389L34.0249 0.55734L34.7506 0.254577L35.5287 0.0653807L36.3491 2.92269e-05H181.236V9.98602H36.3491L35.5287 9.92067L34.7506 9.73148L34.0249 9.42871L33.3623 9.02266L32.773 8.52361L32.2675 7.94182L31.8562 7.2876L31.5496 6.5712L31.3579 5.80292L31.2917 4.99303Z" fill="#B3B3B3"/>
<path d="M80.7878 2.92269e-05H131.74V9.98602H80.7878V2.92269e-05Z" fill="#CCCCCC"/>
<path d="M50.0003 32.4127L50.4892 30.6962L51.2005 29.0951L52.115 27.6249L53.2135 26.301L54.477 25.1385L55.8864 24.153L57.4225 23.3597L59.0662 22.7741L60.7985 22.4114L62.6002 22.2871H292.349L294.151 22.4114L295.883 22.7741L297.527 23.3597L299.063 24.153L300.473 25.1385L301.736 26.301L302.835 27.6249L303.749 29.0951L304.46 30.6962L304.949 32.4127L323.433 120.448L323.658 122.402L323.523 124.296L323.058 126.097L322.291 127.77L321.25 129.28L319.963 130.593L318.46 131.675L316.768 132.49L314.916 133.005L312.933 133.184H42.0164L40.0334 133.005L38.1818 132.49L36.49 131.675L34.9866 130.593L33.7001 129.28L32.6588 127.77L31.8914 126.097L31.4262 124.296L31.2917 122.402L31.5166 120.448L50.0003 32.4127Z" fill="#333333"/>
<path d="M322.78 117.336L322.229 118.416L321.56 119.424L320.78 120.35L319.9 121.185L318.925 121.919L317.865 122.542L316.728 123.043L315.521 123.414L314.254 123.643L312.933 123.722H42.0164L40.6959 123.643L39.4284 123.414L38.2218 123.043L37.0845 122.542L36.0245 121.919L35.0499 121.185L34.1691 120.35L33.39 119.424L32.7209 118.416L32.1699 117.336L50.0002 32.4126L50.4892 30.6961L51.2004 29.0951L52.1149 27.6249L53.2135 26.3009L54.477 25.1385L55.8863 24.1529L57.4225 23.3597L59.0662 22.7741L60.7984 22.4114L62.6001 22.2871H292.349L294.151 22.4114L295.883 22.7741L297.527 23.3597L299.063 24.1529L300.473 25.1385L301.736 26.3009L302.835 27.6249L303.749 29.0951L304.46 30.6961L304.949 32.4126L322.78 117.336Z" fill="#666666"/>
<path d="M62.1977 41.644L62.5173 40.4909L62.9873 39.4147L63.5947 38.426L64.3267 37.5352L65.1702 36.7528L66.1125 36.0892L67.1405 35.5549L68.2415 35.1602L69.4024 34.9158L70.6103 34.832H283.501L284.709 34.9158L285.869 35.1602L286.97 35.5549L287.998 36.0892L288.941 36.7528L289.784 37.5352L290.516 38.426L291.124 39.4147L291.594 40.4909L291.913 41.644L302.332 93.1901L282.004 111.188H72.107L51.7791 93.1901L62.1977 41.644Z" fill="#B3B3B3"/>
<path d="M252.948 34.832H187.107L229.311 111.188H282.004L290.832 103.372L252.948 34.832Z" fill="#E5E5E5"/>
<path d="M170.287 34.832H80.1963L122.4 111.188H212.491L170.287 34.832Z" fill="#E5E5E5"/>
<path d="M70.5139 41.4249H283.596L293.263 89.2664L276.899 103.536H77.2103L60.8464 89.2664L70.5139 41.4249Z" fill="black"/>
<path d="M284.697 46.8734H69.4128L70.5138 41.425H283.596L284.697 46.8734Z" fill="#4C4C4C"/>
</svg>
